# xmcd CD database file
#
# Track frame offsets:
#	150
#	32675
#	62513
#	115426
#	139395
#
# Disc length: 2244 seconds
#
# Revision: 0
# Processed by: cddbd v1.5.2PL0 Copyright (c) Steve Scherf et al.
# Submitted via: CDex 1.70beta2
#
DISCID=4408c205
DTITLE=フレディ・ハバード - ブルーノート・ベスト・ジャズ・コレクション 20
DYEAR=2012
DGENRE=Jazz
TTITLE0=オープン・セサミ
TTITLE1=ユアー・マイ・エヴリシング
TTITLE2=クライシス
TTITLE3=ハブ・キャップ
TTITLE4=ジプシー・ブルー
EXTD=YEAR: 2012
EXTT0=
EXTT1=
EXTT2=
EXTT3=
EXTT4=
PLAYORDER=
